<svg width="24" height="24" viewBox="0 0 24 24" fill="none" xmlns="http://www.w3.org/2000/svg" preserveAspectRatio="xMinYMid meet">
 <g>
  <rect id="svg_9" height="3.375" width="18.75" y="3.9375" x="2.6875" fill="#F98012"/>
  <path fill-opacity="0" d="m22.03534,5.29468c0,-1.01702 -0.82552,-1.84235 -1.84309,-1.84235l-16.34992,0c-1.01661,0 -1.84214,0.82534 -1.84214,1.84235l0,14.74161c0,1.01702 0.82552,1.84328 1.84214,1.84328l16.34992,0c1.01757,0 1.84309,-0.82627 1.84309,-1.84328l0,-14.74161z" fill="#000000" stroke="#191919" stroke-width="1.59px" id="svg_2"/>
  <g transform="matrix(1.30947 0 0 4.6 -3.21281 -26.9786)" id="svg_3">
   <rect x="3.88" y="7.406" width="15.286" height="0.353" fill="#191919" id="svg_4"/>
  </g>
  <g transform="matrix(1 0 0 1 -0.562386 0.124992)" id="svg_5">
   <path d="m7.551,1.722c0,-0.487 -0.395,-0.882 -0.883,-0.882c-0.487,0 -0.882,0.395 -0.882,0.882l0,3.071c0,0.488 0.395,0.883 0.882,0.883c0.488,0 0.883,-0.395 0.883,-0.883l0,-3.071z" fill="#191919" id="svg_6"/>
  </g>
  <g transform="matrix(1 0 0 1 11.2356 0.160294)" id="svg_7">
   <path d="m7.551,1.722c0,-0.487 -0.395,-0.882 -0.883,-0.882c-0.487,0 -0.882,0.395 -0.882,0.882l0,3.071c0,0.488 0.395,0.883 0.882,0.883c0.488,0 0.883,-0.395 0.883,-0.883l0,-3.071z" fill="#191919" id="svg_8"/>
  </g>
  <g transform="matrix(1 0 0 1 -0.668544 1.1412)" id="svg_10">
   <g transform="matrix(8 0 0 8 4.162 14.2543)" id="svg_11">
    <path d="m0.077,-0.73744l0.249,0c0.097,0 0.169,0.015 0.216,0.043c0.047,0.029 0.071,0.074 0.071,0.135c0,0.04 -0.01,0.074 -0.031,0.102c-0.02,0.029 -0.047,0.047 -0.081,0.055l0,0.005c0.044,0.012 0.076,0.031 0.096,0.059c0.02,0.027 0.03,0.062 0.03,0.106c0,0.065 -0.024,0.116 -0.073,0.153c-0.049,0.037 -0.115,0.056 -0.199,0.056l-0.278,0l0,-0.714zm0.193,0.274l0.058,0c0.028,0 0.049,-0.006 0.064,-0.017c0.015,-0.011 0.023,-0.028 0.023,-0.051c0,-0.04 -0.03,-0.06 -0.091,-0.06l-0.054,0l0,0.128zm0,0.141l0,0.15l0.068,0c0.06,0 0.09,-0.025 0.09,-0.076c0,-0.024 -0.008,-0.042 -0.024,-0.055c-0.016,-0.012 -0.039,-0.019 -0.07,-0.019l-0.064,0z" fill="#191919" fill-rule="nonzero" id="svg_12"/>
   </g>
   <g transform="matrix(8 0 0 8 8.51357 14.2543)" id="svg_13">
    <path d="m0.594,-0.30144c0,0.091 -0.024,0.161 -0.073,0.212c-0.048,0.05 -0.117,0.076 -0.204,0.076c-0.084,0 -0.151,-0.026 -0.201,-0.078c-0.049,-0.052 -0.074,-0.122 -0.074,-0.21c0,-0.09 0.024,-0.16 0.073,-0.21c0.049,-0.05 0.117,-0.075 0.205,-0.075c0.054,0 0.102,0.012 0.144,0.035c0.042,0.023 0.074,0.056 0.096,0.099c0.023,0.043 0.034,0.094 0.034,0.151zm-0.358,0c0,0.048 0.006,0.084 0.019,0.109c0.013,0.025 0.034,0.037 0.064,0.037c0.029,0 0.05,-0.012 0.063,-0.037c0.012,-0.025 0.018,-0.061 0.018,-0.109c0,-0.047 -0.006,-0.083 -0.019,-0.107c-0.012,-0.024 -0.033,-0.036 -0.063,-0.036c-0.029,0 -0.05,0.012 -0.063,0.036c-0.013,0.024 -0.019,0.06 -0.019,0.107z" fill="#191919" fill-rule="nonzero" id="svg_14"/>
   </g>
  </g>
  <g transform="matrix(1 0 0 1 -0.527337 5.86007)" id="svg_15">
   <g transform="matrix(8 0 0 8 4.162 14.2543)" id="svg_16">
    <path d="m0.594,-0.30144c0,0.091 -0.024,0.161 -0.073,0.212c-0.048,0.05 -0.117,0.076 -0.204,0.076c-0.084,0 -0.151,-0.026 -0.201,-0.078c-0.049,-0.052 -0.074,-0.122 -0.074,-0.21c0,-0.09 0.024,-0.16 0.073,-0.21c0.049,-0.05 0.117,-0.075 0.205,-0.075c0.054,0 0.102,0.012 0.144,0.035c0.042,0.023 0.074,0.056 0.096,0.099c0.023,0.043 0.034,0.094 0.034,0.151zm-0.358,0c0,0.048 0.006,0.084 0.019,0.109c0.013,0.025 0.034,0.037 0.064,0.037c0.029,0 0.05,-0.012 0.063,-0.037c0.012,-0.025 0.018,-0.061 0.018,-0.109c0,-0.047 -0.006,-0.083 -0.019,-0.107c-0.012,-0.024 -0.033,-0.036 -0.063,-0.036c-0.029,0 -0.05,0.012 -0.063,0.036c-0.013,0.024 -0.019,0.06 -0.019,0.107z" fill="#191919" fill-rule="nonzero" id="svg_17"/>
   </g>
   <g transform="matrix(8 0 0 8 8.2206 14.2543)" id="svg_18">
    <path d="m0.251,-0.33444c0.023,-0.037 0.043,-0.065 0.059,-0.086l0.124,-0.156l0.213,0l-0.192,0.235l0.204,0.318l-0.218,0l-0.121,-0.198l-0.062,0.047l0,0.151l-0.192,0l0,-0.76l0.192,0l0,0.299c0,0.051 -0.004,0.101 -0.011,0.15l0.004,0z" fill="#191919" fill-rule="nonzero" id="svg_19"/>
   </g>
  </g>
  <g transform="matrix(1 0 0 1.20465 8.28077 2.95576)" id="svg_20">
   <g transform="matrix(12.0265 0 0 12.0265 4.162 14.2543)" id="svg_21">
    <rect x="0.077" y="-0.72694" width="0.194" height="0.714" fill="#191919" fill-rule="nonzero" id="svg_22"/>
   </g>
   <g transform="matrix(12.0265 0 0 12.0265 6.78694 14.2543)" id="svg_23">
    <path d="m0.337,-0.15394c0.026,0 0.056,-0.006 0.092,-0.019l0,0.139c-0.026,0.011 -0.05,0.019 -0.073,0.024c-0.024,0.004 -0.051,0.007 -0.082,0.007c-0.064,0 -0.11,-0.016 -0.139,-0.047c-0.028,-0.032 -0.042,-0.08 -0.042,-0.145l0,-0.228l-0.067,0l0,-0.078l0.085,-0.06l0.049,-0.116l0.125,0l0,0.111l0.136,0l0,0.143l-0.136,0l0,0.215c0,0.036 0.017,0.054 0.052,0.054z" fill="#191919" fill-rule="nonzero" id="svg_24"/>
   </g>
  </g>
 </g>
</svg>